<?xml version="1.0" standalone="no"?>
<!DOCTYPE svg PUBLIC "-//W3C//DTD SVG 20010904//EN"
 "http://www.w3.org/TR/2001/REC-SVG-20010904/DTD/svg10.dtd">
<svg version="1.0" xmlns="http://www.w3.org/2000/svg"
 width="480.000000pt" height="130.000000pt" viewBox="0 0 480.000000 130.000000"
 preserveAspectRatio="xMidYMid meet">

<g transform="translate(0.000000,130.000000) scale(0.100000,-0.100000)"
fill="#000000" stroke="none">
<path d="M2 653 l3 -648 2395 0 2395 0 3 648 2 647 -2400 0 -2400 0 2 -647z
m633 412 c34 -33 32 -71 -11 -171 l-36 -84 -48 0 -48 0 16 59 c15 57 15 59 -6
86 -26 33 -27 55 -7 95 17 33 27 38 78 39 28 1 45 -6 62 -24z m-397 -212 l2
-203 125 0 125 0 0 -65 0 -65 -200 0 -200 0 0 270 0 271 73 -3 72 -3 3 -202z
m898 176 c86 -42 107 -128 48 -198 l-25 -30 37 -33 c29 -27 37 -43 41 -82 8
-66 -15 -109 -76 -138 -43 -21 -59 -23 -236 -23 l-190 0 -3 255 c-1 140 0 261
3 269 4 11 37 13 178 9 159 -4 177 -6 223 -29z m620 -229 c62 -140 114 -261
114 -267 0 -9 -22 -13 -76 -13 l-75 0 -21 50 -21 50 -112 0 -112 0 -21 -50
-21 -50 -75 0 c-42 0 -76 3 -76 8 0 12 220 505 232 519 8 10 31 13 81 11 l69
-3 114 -255z m535 228 c70 -32 101 -78 107 -159 5 -68 -15 -118 -64 -157 l-33
-26 55 -78 c30 -42 54 -80 54 -83 0 -3 -36 -5 -79 -5 l-80 0 -48 70 c-47 67
-49 69 -90 70 l-43 0 0 -70 0 -70 -75 0 -75 0 0 263 c0 145 3 267 8 271 4 5
75 6 157 4 135 -4 156 -7 206 -30z m595 1 c87 -43 107 -128 47 -200 -22 -25
-24 -32 -12 -40 8 -5 17 -9 22 -9 18 0 47 -68 47 -109 0 -62 -30 -105 -88
-128 -39 -15 -77 -18 -232 -18 l-185 0 -3 255 c-1 140 0 261 3 269 4 11 37 13
178 9 159 -4 177 -6 223 -29z m599 -34 l0 -60 -205 0 -205 0 -3 63 -3 62 208
-2 208 -3 0 -60z m450 45 c74 -23 135 -108 135 -190 -1 -38 -34 -103 -70 -137
l-32 -30 51 -73 c28 -40 51 -77 51 -82 0 -4 -35 -8 -77 -8 l-78 0 -48 70 c-46
67 -50 70 -88 70 l-39 0 0 -70 0 -70 -74 0 c-58 0 -75 3 -80 16 -9 23 -7 509
2 518 11 12 300 0 347 -14z m620 -4 c55 -25 119 -90 141 -142 8 -18 14 -66 14
-107 0 -152 -94 -254 -251 -273 -215 -25 -382 154 -325 351 21 70 81 139 151
171 71 34 199 34 270 0z m-1100 -246 l0 -55 -122 -3 -123 -3 0 61 0 61 123 -3
122 -3 0 -55z m45 -210 l0 -60 -215 0 -215 0 0 60 0 60 215 0 215 0 0 -60z
m-2162 -211 c36 -12 47 -45 26 -76 -11 -18 -12 -28 -3 -44 16 -31 3 -35 -16
-5 -25 38 -72 37 -78 -1 -2 -16 -5 6 -6 48 0 42 2 79 6 82 9 10 36 9 71 -4z
m277 -10 c7 -7 -4 -8 -31 -3 -35 5 -45 3 -63 -15 -29 -29 -27 -65 6 -91 26
-21 36 -21 78 -4 18 7 18 6 6 -9 -15 -19 -62 -22 -90 -7 -31 16 -45 64 -29 96
23 48 89 66 123 33z m470 11 c4 -6 -5 -10 -19 -10 -25 0 -26 -2 -26 -70 0 -40
-4 -70 -10 -70 -6 0 -10 30 -10 70 0 68 -1 70 -26 70 -14 0 -23 4 -19 10 3 6
28 10 55 10 27 0 52 -4 55 -10z m191 -5 c18 -13 16 -14 -16 -9 -26 4 -40 1
-50 -10 -16 -20 -7 -30 42 -45 38 -12 51 -31 42 -56 -11 -29 -93 -34 -102 -7
-3 11 0 12 18 2 17 -9 29 -9 46 -1 35 16 29 29 -21 51 -36 15 -45 24 -45 44 0
41 49 59 86 31z m338 9 c19 -7 21 -45 4 -62 -9 -9 -8 -16 5 -30 16 -15 19 -15
27 -2 8 12 10 11 10 -7 0 -12 3 -30 7 -40 6 -15 4 -16 -8 -6 -9 8 -20 9 -29 3
-21 -14 -64 -12 -78 2 -16 16 -15 43 3 58 10 8 13 21 8 38 -4 18 -1 29 12 39
22 15 19 15 39 7z m374 0 c34 -10 26 -19 -15 -19 -31 0 -38 -4 -38 -19 0 -13
11 -23 34 -31 43 -14 60 -38 45 -63 -15 -24 -77 -28 -95 -6 -13 16 -12 17 6
10 40 -16 50 -17 70 -1 20 15 20 15 1 30 -11 8 -26 15 -35 15 -18 0 -51 29
-51 46 0 7 10 20 22 28 25 18 25 18 56 10z m1183 -4 c5 0 9 -3 9 -7 0 -5 -17
-8 -37 -8 -31 0 -38 -4 -38 -20 0 -14 10 -23 35 -31 43 -14 59 -37 44 -62 -15
-23 -77 -28 -94 -8 -15 19 -7 20 22 5 15 -8 27 -8 44 0 35 16 30 29 -20 50
-24 11 -46 26 -49 34 -10 27 31 61 61 51 8 -2 18 -4 23 -4z m-3501 -65 c43 0
45 1 48 33 2 17 7 32 13 32 12 0 12 -137 -1 -145 -6 -4 -10 8 -10 29 l0 36
-49 0 -50 0 -4 -37 c-2 -21 -4 -2 -4 42 0 50 2 67 6 45 6 -34 7 -35 51 -35z
m290 3 c17 -35 30 -70 29 -78 0 -9 -4 -6 -11 8 -15 31 -92 32 -108 1 -7 -11
-14 -18 -18 -15 -7 8 59 146 70 146 5 0 22 -28 38 -62z m157 -50 c-2 -24 -4
-7 -4 37 0 44 2 63 4 43 2 -21 2 -57 0 -80z m658 -14 c23 -17 27 -17 50 0 14
10 21 31 26 73 l6 58 2 -62 c1 -69 -13 -93 -56 -93 -47 0 -63 26 -62 94 l2 61
6 -58 c5 -42 12 -63 26 -73z m1385 91 c0 -35 0 -35 45 -35 45 0 45 0 45 35 0
19 5 35 10 35 6 0 10 -32 10 -76 0 -47 -4 -73 -10 -69 -5 3 -10 19 -10 36 0
28 -2 29 -45 29 -45 0 -45 0 -45 -35 0 -19 -4 -35 -10 -35 -6 0 -10 32 -10 75
0 43 4 75 10 75 6 0 10 -16 10 -35z m338 -37 c18 -39 30 -73 28 -76 -3 -2 -9
6 -16 17 -15 30 -96 31 -105 1 -3 -11 -11 -20 -17 -20 -5 0 -8 4 -6 8 39 94
63 142 73 142 6 0 25 -32 43 -72z m157 10 l28 -63 30 65 c40 85 46 63 7 -25
-18 -41 -34 -65 -40 -59 -15 15 -70 144 -61 144 5 0 21 -28 36 -62z m272 55
c-46 -4 -48 -6 -45 -31 3 -23 9 -28 43 -33 l40 -6 -43 -2 c-41 -1 -43 -2 -40
-28 3 -25 8 -29 48 -34 l45 -6 -52 -1 -53 -2 0 75 0 75 53 -2 52 -2 -48 -3z"/>
<path d="M890 895 l0 -45 73 0 c78 0 97 9 97 47 0 31 -28 43 -104 43 l-66 0 0
-45z"/>
<path d="M892 688 l3 -53 55 -3 c30 -2 72 2 93 8 33 10 37 14 37 44 0 29 -5
36 -31 45 -18 6 -61 11 -96 11 l-64 0 3 -52z"/>
<path d="M1548 855 c-9 -22 -24 -57 -32 -77 l-16 -38 65 0 c73 0 71 -9 23 100
l-24 54 -16 -39z"/>
<path d="M2072 858 l3 -73 34 -3 c48 -5 97 6 116 24 8 9 15 33 15 54 0 53 -26
70 -108 70 l-63 0 3 -72z"/>
<path d="M2640 895 l0 -45 73 0 c78 0 97 9 97 47 0 31 -28 43 -104 43 l-66 0
0 -45z"/>
<path d="M2640 685 l0 -55 64 0 c103 0 146 24 130 72 -8 27 -44 38 -125 38
l-69 0 0 -55z"/>
<path d="M3740 854 l0 -76 64 4 c78 5 106 25 106 75 0 53 -28 73 -105 73 l-65
0 0 -76z"/>
<path d="M4376 930 c-115 -36 -132 -215 -25 -272 69 -37 150 -14 187 51 67
119 -36 260 -162 221z"/>
<path d="M1270 325 c0 -41 18 -53 59 -39 52 19 34 74 -25 74 -32 0 -34 -2 -34
-35z"/>
<path d="M2580 340 c0 -15 5 -20 18 -18 9 2 17 10 17 18 0 8 -8 16 -17 18 -13
2 -18 -3 -18 -18z"/>
<path d="M2567 283 c-13 -12 -7 -41 9 -47 21 -8 26 -7 44 4 12 7 12 12 -4 29
-19 21 -37 26 -49 14z"/>
<path d="M901 310 c-10 -29 -9 -30 20 -30 33 0 33 0 17 35 -15 33 -24 32 -37
-5z"/>
<path d="M3437 315 l-17 -35 35 0 36 0 -17 33 c-9 17 -17 33 -18 34 -2 2 -10
-13 -19 -32z"/>
</g>
</svg>
